<svg width="865" height="843" xmlns="http://www.w3.org/2000/svg" xmlns:xlink="http://www.w3.org/1999/xlink" xml:space="preserve" overflow="hidden"><g transform="translate(-761 -516)"><path d="M827.5 539.1C827.5 529.932 834.932 522.5 844.1 522.5L1109.9 522.5C1119.07 522.5 1126.5 529.932 1126.5 539.1L1126.5 671.9C1126.5 681.068 1119.07 688.5 1109.9 688.5L844.1 688.5C834.932 688.5 827.5 681.068 827.5 671.9Z" stroke="#DFCDDC" stroke-width="6.875" stroke-miterlimit="8" stroke-opacity="0.901961" fill="#DFCDDC" fill-rule="evenodd" fill-opacity="0.901961"/><text font-family="DengXian,DengXian_MSFontService,sans-serif" font-weight="400" font-size="83" transform="matrix(1 0 0 1 858.187 624)">Topic1</text><path d="M1260.5 539.1C1260.5 529.932 1267.93 522.5 1277.1 522.5L1543.9 522.5C1553.07 522.5 1560.5 529.932 1560.5 539.1L1560.5 671.9C1560.5 681.068 1553.07 688.5 1543.9 688.5L1277.1 688.5C1267.93 688.5 1260.5 681.068 1260.5 671.9Z" stroke="#CECDE0" stroke-width="6.875" stroke-miterlimit="8" stroke-opacity="0.901961" fill="#CECDE0" fill-rule="evenodd" fill-opacity="0.901961"/><text font-family="DengXian,DengXian_MSFontService,sans-serif" font-weight="400" font-size="83" transform="matrix(1 0 0 1 1291.38 624)">Topic2</text><path d="M1131.5 1355.5 1194 1230.5 1256.5 1355.5Z" stroke="#CDE1E0" stroke-width="6.875" stroke-miterlimit="8" stroke-opacity="0.901961" fill="#CDE1E0" fill-rule="evenodd" fill-opacity="0.901961"/><path d="M817.161 1202.49 1565.31 1150.17 1568.97 1202.49 820.819 1254.8Z" stroke="#D0E1CD" stroke-width="6.875" stroke-miterlimit="8" stroke-opacity="0.901961" fill="#D0E1CD" fill-rule="evenodd" fill-opacity="0.901961"/><path d="M815.647 1078.93C814.751 1066.13 824.403 1055.02 837.205 1054.13L1089.35 1036.5C1102.15 1035.6 1113.26 1045.25 1114.15 1058.06L1120.64 1150.77C1121.53 1163.57 1111.88 1174.68 1099.08 1175.57L846.93 1193.2C834.128 1194.1 823.025 1184.45 822.13 1171.64Z" stroke="#FFFFFF" stroke-width="6.875" stroke-miterlimit="8" fill="#A02B93" fill-rule="evenodd"/><text fill="#FFFFFF" font-family="DengXian,DengXian_MSFontService,sans-serif" font-weight="400" font-size="28" transform="matrix(0.997564 -0.0697565 0.0697565 0.997564 831.769 1094)">A</text><text fill="#FFFFFF" font-family="DengXian,DengXian_MSFontService,sans-serif" font-weight="400" font-size="23" transform="matrix(0.997564 -0.0697565 0.0697565 0.997564 834.699 1136)">•</text><text fill="#FFFFFF" font-family="DengXian,DengXian_MSFontService,sans-serif" font-weight="400" font-size="23" transform="matrix(0.997564 -0.0697565 0.0697565 0.997564 855.274 1134)">111</text><text fill="#FFFFFF" font-family="DengXian,DengXian_MSFontService,sans-serif" font-weight="400" font-size="23" transform="matrix(0.997564 -0.0697565 0.0697565 0.997564 837.001 1168)">•</text><text fill="#FFFFFF" font-family="DengXian,DengXian_MSFontService,sans-serif" font-weight="400" font-size="23" transform="matrix(0.997564 -0.0697565 0.0697565 0.997564 857.576 1167)">222</text><path d="M804.817 928.98C803.921 916.178 813.573 905.075 826.375 904.18L1078.52 886.548C1091.32 885.653 1102.43 895.305 1103.32 908.106L1109.81 1000.82C1110.7 1013.62 1101.05 1024.73 1088.25 1025.62L836.1 1043.25C823.298 1044.15 812.195 1034.5 811.3 1021.69Z" stroke="#FFFFFF" stroke-width="6.875" stroke-miterlimit="8" fill="#2C71A4" fill-rule="evenodd"/><text fill="#FFFFFF" font-family="DengXian,DengXian_MSFontService,sans-serif" font-weight="400" font-size="28" transform="matrix(0.997564 -0.0697565 0.0697565 0.997564 950.125 972)">B</text><path d="M793.987 782.362C793.092 769.56 802.744 758.457 815.545 757.562L1067.69 739.93C1080.49 739.035 1091.6 748.687 1092.49 761.488L1098.98 854.203C1099.87 867.004 1090.22 878.108 1077.42 879.003L825.27 896.635C812.469 897.53 801.365 887.878 800.47 875.076Z" stroke="#FFFFFF" stroke-width="6.875" stroke-miterlimit="8" fill="#4EA72E" fill-rule="evenodd"/><text fill="#FFFFFF" font-family="DengXian,DengXian_MSFontService,sans-serif" font-weight="400" font-size="28" transform="matrix(0.997564 -0.0697565 0.0697565 0.997564 938.45 826)">C</text></g></svg>