<svg xmlns="http://www.w3.org/2000/svg" viewBox="0 0 1024 1024" class="icon" version="1.1" fill="#000000" width="1024" height="1024"><g id="SVGRepo_bgCarrier" stroke-width="0"/><g id="SVGRepo_tracerCarrier" stroke-linecap="round" stroke-linejoin="round"/><g id="SVGRepo_iconCarrier"><path d="M552.203046 725.056345c0.845544 0.08747 3.811197-1.507818 8.255512-4.206896a241.775695 241.775695 0 0 1-46.759018 4.865004c12.783131 0.074974 25.516279-0.120792 38.503506-0.658108zM484.197124 725.056345c7.789004 0.316558 15.457217 0.487333 23.100438 0.595629a242.100584 242.100584 0 0 1-26.411806-1.932672c1.695254 0.908023 2.83653 1.387026 3.311368 1.337043z" fill="#F8F7F8"/><path d="M511.825181 0.470672C229.050999 0.470672 0.000121 229.52155 0.000121 512.295732c0 174.094662 86.916126 327.821285 219.733229 420.252193 25.853663-89.860952 90.914759-157.604465 179.438669-188.768813-22.937993-35.196303-31.151852-55.097834-30.102212-64.869495a242.433804 242.433804 0 0 1-51.515725-51.578204c-251.0267-28.652707-36.237614-533.034477 194.387726-411.738435 52.394592-27.565578 103.677064-23.050455 148.836628 0.753909 18.593645-21.359366 41.952327-37.36223 47.74618-21.530141l17.356568 47.225525 16.390231 44.892989 1.982656 2.540798 48.337645 9.00109 49.470591 9.092726c25.357999 4.756708-16.256943 62.811864-44.005793 78.560648 41.66076 110.195669 26.678381 229.7673-92.189323 241.521615a242.408812 242.408812 0 0 1-42.610436 44.543109c9.317649 4.773368 4.640081 25.36633-28.448609 75.461707 83.288199 32.668001 144.338166 98.516327 169.142187 184.832658 132.779616-92.435073 219.699907-246.14087 219.699908-420.193879 0-282.774182-229.17167-511.82506-511.82506-511.82506z" fill="#F8F7F8"/><path d="M480.889921 723.719302c8.672036 1.116285 17.47736 1.766063 26.411806 1.932672 2.13677 0.029157 4.273539 0.054148 6.401978 0.066644a241.775695 241.775695 0 0 0 46.759018-4.865004c23.012968-13.945234 85.891476-57.297083 102.794032-48.658368a242.271359 242.271359 0 0 0 42.610436-44.543109c-3.465482 0.34155-7.005939 0.608125-10.650526 0.77057-2.107613 0.08747-4.244383 0.149949-6.406144 0.17494 34.825597-50.532728 52.53621-112.753128 42.027302-194.104489l-216.534323 1.062137h-2.594946v-0.012496l-215.709604-1.049641c-10.508908 81.347196 7.201705 143.571761 42.031467 194.104489a202.680724 202.680724 0 0 1-20.47217-1.266234 242.433804 242.433804 0 0 0 51.515726 51.578204c3.203072-29.885619 92.72664 34.592343 111.815948 44.809685z" fill="#FCE9EA"/><path d="M634.80398 747.656953l-0.662273 1.012154-115.943704-0.116627-115.822912 0.116627c-1.116285-1.678593-2.153431-3.278046-3.203072-4.89416-88.523909 31.164348-153.585005 98.90786-179.438669 188.768812 82.825857 57.638633 183.483119 91.456241 292.091831 91.456241 108.600381 0 209.282635-33.842599 292.125152-91.514554-24.804022-86.312165-85.858154-152.160492-169.146353-184.828493z" fill="#C1E5F9"/><path d="M518.198003 748.55248l115.943704 0.116627 0.662273-1.012154c33.08869-50.095378 37.766258-70.692504 28.44861-75.461707-16.902556-8.638714-79.776899 34.713135-102.794032 48.658368-4.444314 2.694912-7.409967 4.294366-8.255512 4.206896a812.168237 812.168237 0 0 1-44.905484 0.591464 836.609883 836.609883 0 0 1-23.100438-0.595629c-0.474838 0.049983-1.616114-0.433185-3.307203-1.337043-19.089309-10.217341-108.612876-74.695303-111.820114-44.81385-1.049641 9.775825 7.164218 29.673191 30.102212 64.869495 1.049641 1.616114 2.086787 3.211402 3.203072 4.89416l115.822912-0.116627z" fill="#FEFEFE"/><path d="M295.99895 434.488993l215.709604 1.049641v0.012496h2.594946l216.534323-1.062137c10.508908 81.347196-7.201705 143.571761-42.027302 194.104489a194.212785 194.212785 0 0 0 17.05667-0.94551c118.867705-11.754316 133.850084-131.325947 92.189323-241.521615-9.459267 5.368998-17.31075 5.843836-20.343046-2.407511l-17.239941-47.225525-17.352402-47.225525-49.470592-9.209352-49.358129-9.209353c-17.544004-3.278046-3.198907-31.893266 16.486032-54.502204-45.16373-23.804364-96.442036-28.315322-148.836628-0.753909-230.621174-121.296041-445.414425 383.081564-194.387726 411.73427a202.680724 202.680724 0 0 0 20.472169 1.266234c-34.825597-50.532728-52.53621-112.753128-42.027301-194.104489zM743.121125 289.267796l1.12878 0.208262a296.107125 296.107125 0 0 0-1.982655-2.540798l0.853875 2.332536z" fill="#A1A1A1"/><path d="M743.121125 289.267796l17.352402 47.225525 17.239941 47.225525c3.032297 8.251346 10.88378 7.776509 20.343046 2.407511 27.748849-15.752949 69.363792-73.808106 44.005793-78.560649l-49.470591-9.092725-48.337645-9.00109-1.132946-0.204097zM644.296569 270.849091l49.35813 9.209353 49.470591 9.209352-0.84971-2.332536-16.390231-44.892989-17.356568-47.225525c-5.793853-15.827923-29.152536 0.17494-47.74618 21.530141-19.684938 22.608939-34.030035 51.224158-16.486032 54.502204z" fill="#C1E5F9"/></g></svg>